<?xml version="1.0" encoding="UTF-8"?><svg id="uuid-83400959-7bc3-4a72-9965-e73e87745bce" xmlns="http://www.w3.org/2000/svg" width="201.16" height="36.48" viewBox="0 0 201.16 36.48"><path d="m13.4,22.68c-.16-.16-.33-.29-.51-.41l-6.68-6.35c-1.3-1.3-3.4-1.3-4.7,0-1.3,1.3-1.3,3.4,0,4.7l7.05,7.05h.01c.5.46,1.12.74,1.75.83,1.08.21,2.24-.1,3.08-.94,1.35-1.35,1.35-3.53,0-4.87Z" fill="#fff"/><g><path d="m60.16,18.07c0,5.24-4.24,9.48-9.48,9.48-1.4,0-2.73-.3-3.91-.85v6.2c0,1.55-1.25,2.8-2.8,2.8s-2.8-1.25-2.8-2.8V11.4c0-1.55,1.25-2.8,2.8-2.8.92,0,1.73.44,2.25,1.11,1.33-.7,2.84-1.11,4.46-1.11,5.24,0,9.48,4.24,9.48,9.48Zm-5.61,0c0-2.14-1.73-3.87-3.87-3.87s-3.87,1.73-3.87,3.87,1.73,3.91,3.87,3.91,3.87-1.77,3.87-3.91Z" fill="#fff"/><path d="m77.95,8.82c1.51,0,2.73,1.22,2.73,2.73v13.2c0,1.51-1.22,2.73-2.73,2.73-.89,0-1.7-.44-2.21-1.11-1.33.7-2.84,1.11-4.43,1.11-5.16,0-9.37-4.21-9.37-9.37s4.2-9.37,9.37-9.37c1.59,0,3.1.41,4.43,1.11.52-.66,1.33-1.11,2.21-1.11v.07Zm-2.73,9.33c0-2.14-1.73-3.87-3.87-3.87s-3.87,1.73-3.87,3.87,1.73,3.87,3.87,3.87,3.87-1.73,3.87-3.87Z" fill="#fff"/><path d="m99.24,8.63c1.55,0,2.8,1.25,2.8,2.8v14.83c0,5.24-4.24,9.48-9.48,9.48-1.55,0-2.8-1.26-2.8-2.8s1.25-2.8,2.8-2.8c1.99,0,3.65-1.47,3.91-3.39-1.18.52-2.51.81-3.87.81-5.24,0-9.48-4.24-9.48-9.48s4.24-9.48,9.48-9.48c1.62,0,3.14.41,4.46,1.11.52-.66,1.33-1.11,2.25-1.11l-.07.04Zm-2.8,9.48c0-2.14-1.73-3.87-3.87-3.87s-3.87,1.73-3.87,3.87,1.73,3.91,3.87,3.91,3.87-1.77,3.87-3.91Z" fill="#fff"/><path d="m104.53,18.07c0-5.16,4.2-9.37,9.37-9.37s9.37,4.2,9.37,9.37-4.2,9.37-9.37,9.37-9.37-4.2-9.37-9.37Zm5.5,0c0,2.14,1.73,3.87,3.87,3.87s3.87-1.73,3.87-3.87-1.74-3.87-3.87-3.87-3.87,1.73-3.87,3.87Z" fill="#fff"/><path d="m144.74,18.07c0,5.24-4.24,9.48-9.48,9.48-1.4,0-2.73-.3-3.91-.85v6.2c0,1.55-1.26,2.8-2.8,2.8s-2.8-1.25-2.8-2.8V11.4c0-1.55,1.26-2.8,2.8-2.8.92,0,1.74.44,2.25,1.11,1.33-.7,2.84-1.11,4.46-1.11,5.24,0,9.48,4.24,9.48,9.48Zm-5.61,0c0-2.14-1.73-3.87-3.87-3.87s-3.87,1.73-3.87,3.87,1.73,3.91,3.87,3.91,3.87-1.77,3.87-3.91Z" fill="#36d5a1"/><path d="m156.29,27.48c-5.17,0-9.37-4.21-9.37-9.37V3.47c0-1.51,1.22-2.73,2.73-2.73s2.73,1.22,2.73,2.73v14.64c0,2.14,1.73,3.87,3.87,3.87,1.51,0,2.73,1.22,2.73,2.73s-1.22,2.73-2.73,2.73l.04.04Z" fill="#36d5a1"/><path d="m161.17,18.41v-7.08c0-1.47,1.18-2.65,2.65-2.65s2.66,1.18,2.66,2.65v7.08c0,2.07,1.66,3.73,3.72,3.73s3.72-1.66,3.72-3.73v-7.08c0-1.47,1.18-2.65,2.66-2.65s2.65,1.18,2.65,2.65v7.08c0,4.98-4.06,9.04-9.04,9.04s-9.04-4.06-9.04-9.04Z" fill="#36d5a1"/><path d="m199.79,22.54c1.11,1.11,1.11,2.91,0,4.02-.55.55-1.29.85-2.03.85s-1.48-.29-2.03-.85l-4.46-4.46-4.46,4.46c-.55.55-1.29.85-2.03.85s-1.48-.29-2.03-.85c-1.14-1.11-1.14-2.91,0-4.02l4.46-4.46-4.46-4.46c-1.14-1.11-1.14-2.91,0-4.02,1.14-1.14,2.95-1.14,4.06,0l4.46,4.46,4.46-4.46c1.11-1.14,2.91-1.14,4.06,0,1.11,1.11,1.11,2.91,0,4.02l-4.46,4.46,4.46,4.46Z" fill="#36d5a1"/></g><circle cx="32.16" cy="18.21" r="3.32" fill="#ffbd49"/><circle cx="11.02" cy="11.17" r="3.32" fill="#ffbd49"/><path d="m27.46,8.82c-1.3-1.3-3.4-1.3-4.7,0l-14.09,14.09h0s-.06.06-.09.09c-1.3,1.3-1.3,3.4,0,4.7,1.3,1.3,3.4,1.3,4.7,0,.03-.03.05-.06.08-.09h0s7.14-7.14,7.14-7.14c.02-.02.05-.03.07-.05s.03-.04.05-.07l6.83-6.83c1.3-1.3,1.3-3.4,0-4.7Z" fill="#fff"/><circle cx="25.12" cy="25.26" r="3.32" fill="#ffbd49"/><g><circle cx="18.07" cy="4.12" r="3.32" fill="#36d5a1"/><circle cx="18.07" cy="32.31" r="3.32" fill="#36d5a1"/></g></svg>